<svg xmlns="http://www.w3.org/2000/svg" viewBox="0 0 120 120" width="120" height="120" role="img" aria-label="RQ Systems">
  <rect width="120" height="120" rx="24" fill="#0a0a0a"/>
  <path transform="translate(27.94 23) scale(0.2163)" fill="#ffffff" fill-rule="evenodd" d="M 0 153.963 L 0 308 13.497 308 L 26.993 308 27.247 168.250 L 27.500 28.500 95.500 28.207 C 142.388 28.004, 165.363 28.259, 169.500 29.027 C 179.992 30.974, 191.217 37.162, 199.992 45.837 C 206.399 52.171, 208.533 55.148, 212.295 63 C 217.547 73.962, 219.273 81.262, 219.273 92.500 C 219.273 102.695, 217.083 111.348, 211.863 121.777 C 209.585 126.329, 207.896 130.181, 208.110 130.336 C 215.917 135.980, 229.008 145, 229.392 145 C 230.894 145, 238.545 129.634, 241.712 120.260 C 245.289 109.670, 245.347 109.240, 245.423 93 C 245.513 73.773, 244.339 67.936, 237.412 53.148 C 231.886 41.353, 226.087 33.209, 217.350 24.975 C 205.549 13.853, 193.649 7.059, 178.500 2.793 C 170.529 0.549, 170.191 0.540, 85.250 0.233 L 0 -0.074 0 153.963 M 132.393 141.024 C 129.584 141.529, 123.509 143.134, 118.893 144.589 C 85.737 155.047, 61.391 181.150, 51.357 217 C 49.895 222.223, 49.548 227.036, 49.587 241.500 C 49.631 258.148, 49.840 260.176, 52.359 268.500 C 62.840 303.133, 89.611 329.650, 123.626 339.094 C 135.504 342.391, 158.237 342.884, 170.796 340.117 C 181.954 337.658, 194.368 332.745, 202.392 327.612 L 208.276 323.849 203.388 318.844 C 200.700 316.091, 196.346 312.020, 193.714 309.796 L 188.929 305.754 180.825 309.458 C 170.433 314.209, 161.996 315.961, 149.410 315.983 C 115.150 316.042, 85.730 293.412, 76.816 260.144 C 73.963 249.496, 73.979 232.446, 76.852 221.713 C 85.676 188.755, 115.182 166, 149.095 166 C 162.224 166, 171.696 168.108, 182.500 173.436 C 203.661 183.870, 217.354 200.791, 223.011 223.493 C 224.933 231.210, 225.173 234.190, 224.703 244.493 C 223.936 261.288, 220.342 271.627, 210.392 285.663 L 206.023 291.827 214.396 299.163 C 219.001 303.199, 230.236 313.363, 239.363 321.750 L 255.958 337 276.229 336.973 L 296.500 336.946 292.500 333.303 C 253.086 297.407, 241.605 286.764, 241.144 285.692 C 240.948 285.236, 241.970 282.230, 243.415 279.011 C 247.732 269.390, 250.097 258.491, 250.687 245.500 C 251.964 217.359, 242.476 192.197, 222.775 171.476 C 209.488 157.502, 193.493 147.860, 175.500 142.979 C 166.456 140.525, 141.472 139.392, 132.393 141.024"/>
</svg>
